<svg width="256" height="256" viewBox="0 0 256 256" xmlns="http://www.w3.org/2000/svg">
  <defs>
    <linearGradient id="tile" x1="0" y1="0" x2="1" y2="1">
      <stop offset="0" stop-color="#8b95a9"/>
      <stop offset="1" stop-color="#474e60"/>
    </linearGradient>
    <linearGradient id="sheen" x1="0" y1="0" x2="0" y2="1">
      <stop offset="0" stop-color="#ffffff" stop-opacity="0.20"/>
      <stop offset="0.55" stop-color="#ffffff" stop-opacity="0"/>
    </linearGradient>
  </defs>
  <rect x="8" y="8" width="240" height="240" rx="56" fill="url(#tile)"/>
  <rect x="8" y="8" width="240" height="240" rx="56" fill="url(#sheen)"/>
  <rect x="9" y="9" width="238" height="238" rx="55" fill="none" stroke="#ffffff" stroke-opacity="0.14" stroke-width="1.5"/>
  <g fill="none" stroke="#ffffff" stroke-width="1.12" stroke-linecap="round" stroke-linejoin="round" transform="translate(-5.3 14.7) scale(11.11 9.44)">
    <path d="M8 3H7a2 2 0 0 0-2 2v5a2 2 0 0 1-2 2 2 2 0 0 1 2 2v5c0 1.1.9 2 2 2h1"/>
    <path d="M16 21h1a2 2 0 0 0 2-2v-5c0-1.1.9-2 2-2a2 2 0 0 1-2-2V5a2 2 0 0 0-2-2h-1"/>
  </g>
  <g fill="none" stroke="#ffffff" stroke-width="12" stroke-linecap="round" stroke-linejoin="round">
    <path d="M166 100 L90 100"/>
    <path d="M110 85 L90 100 L110 115"/>
    <path d="M90 156 L166 156"/>
    <path d="M146 141 L166 156 L146 171"/>
  </g>
</svg>
